<mxfile host="app.diagrams.net" modified="2023-09-21T06:50:45.575Z" agent="Mozilla/5.0 (Windows NT 10.0; Win64; x64) AppleWebKit/537.36 (KHTML, like Gecko) Chrome/116.0.0.0 Safari/537.36" version="21.8.0" etag="u5OIUyA3yZTNnNmhEf2n" type="github">
  <diagram name="第 1 页" id="9w5-ZJL8ofbwCPxaKWPm">
    <mxGraphModel>
      <root>
        <mxCell id="0" />
        <mxCell id="1" parent="0" />
      </root>
    </mxGraphModel>
  </diagram>
</mxfile>
